HIERARCHY
ROOT Hips
{
	OFFSET 0.00000 0.00000 0.00000
	CHANNELS 6 Xposition Yposition Zposition Yrotation Zrotation Xrotation 
	JOINT Lumbar
	{
		OFFSET 0 0 0
		CHANNELS 3 Zrotation Xrotation Yrotation
		JOINT Neck
		{
			OFFSET 0.00 0.2701 0.00
			CHANNELS 3 Zrotation Xrotation Yrotation
			End Site
			{
				OFFSET 0.00 0.1379 0.00
			}
		}
		JOINT RightShoulder
		{
			OFFSET 0.0119 0.2289 0.1181
			CHANNELS 3 Zrotation Xrotation Yrotation
			JOINT RightElbow
			{
				OFFSET 0.00 -0.1475 0.00
				CHANNELS 2 Zrotation Yrotation
				JOINT RightWrist
				{
					OFFSET 0.00 -0.1605 0.00
					CHANNELS 2 Zrotation Xrotation
					End Site
					{
						OFFSET 0.0040 -0.1068 0.0006
					}
				}
			}
		}
		JOINT LeftShoulder
		{
			OFFSET 0.0119 0.2289 -0.1181
			CHANNELS 3 Zrotation Xrotation Yrotation
			JOINT LeftElbow
			{
				OFFSET 0.00 -0.1475 0.00
				CHANNELS 2 Zrotation Yrotation
				JOINT LeftWrist
				{
					OFFSET 0.00 -0.1605 0.00
					CHANNELS 2 Zrotation Xrotation
					End Site
					{
						OFFSET 0.0040 -0.1068 -0.0006
					}
				}
			}
		}
	}
	JOINT RightHip
	{
		OFFSET 0.0316 -0.0424 0.0458
		CHANNELS 3 Zrotation Xrotation Yrotation
		JOINT RightKnee
		{
			OFFSET 0.00 -0.2438 0.00
			CHANNELS 1 Zrotation
			JOINT RightAnkle
			{
				OFFSET 0.00 -0.2449 0.00
				CHANNELS 3 Zrotation Xrotation Yrotation
				End Site
				{
					OFFSET 0.1237 -0.0542 0.0051
				}
			}
		}
	}
	JOINT LeftHip
	{
		OFFSET 0.0316 -0.0424 -0.0458
		CHANNELS 3 Zrotation Xrotation Yrotation
		JOINT LeftKnee
		{
			OFFSET 0.00 -0.2438 0.00
			CHANNELS 1 Zrotation
			JOINT LeftAnkle
			{
				OFFSET 0.00 -0.2449 0.00
				CHANNELS 3 Zrotation Xrotation Yrotation
				End Site
				{
					OFFSET 0.1237 -0.0542 -0.0051
				}
			}
		}
	}
}
MOTION
Frames: 11
Frame Time: 0.02
-0.33269 -0.03599 -0.55844 309.43815 -23.95182 -8.70389 30.49138 5.31497 -27.64611 -7.63134 8.55861 -0.83079 20.08603 -43.66885 12.5384 122.69364 107.1257 -32.09224 -7.03024 55.3094 15.52304 -45.21791 93.83981 -108.83758 -30.81666 7.89758 46.98341 -2.02624 -7.45173 -9.30652 -16.16535 -4.09203 -3.29922 38.06789 0.47641 10.0296 -39.46386 -8.09804 5.22756 3.52494
-0.33456 -0.0356 -0.55662 307.82184 -23.84553 -8.74757 30.81878 5.44049 -27.47883 -7.69009 8.47926 -0.83079 19.66223 -43.30099 12.37286 122.8531 105.19003 -30.85408 -6.84767 54.87299 15.11173 -45.075 94.03531 -108.7688 -30.66857 7.83645 47.35013 -2.9056 -6.93009 -12.74472 -15.58383 -4.50458 -3.52141 38.19042 0.93895 10.15938 -39.71233 -8.22572 5.30419 3.57399
-0.33639 -0.03543 -0.55431 306.34634 -23.77324 -8.76519 31.1828 5.53408 -27.29674 -7.73166 8.45237 -0.83079 19.09173 -42.80641 12.14916 123.07824 102.82114 -29.32273 -6.62483 54.20294 14.75831 -44.95471 94.34494 -108.71397 -30.47975 7.73618 47.97308 -3.9063 -7.78234 -16.63635 -15.1829 -4.41038 -3.43593 38.31862 1.44084 10.27758 -40.07879 -8.33612 5.36606 3.6125
-0.33827 -0.03515 -0.5522 304.80369 -23.6824 -8.79348 31.52163 5.64179 -27.11196 -7.77936 8.40513 -0.83079 18.58813 -42.36112 11.95589 123.26862 100.80841 -28.01358 -6.43645 53.64037 14.38812 -44.82716 94.60208 -108.64798 -30.30818 7.65683 48.44676 -4.83595 -7.98545 -20.21753 -14.71192 -4.55266 -3.49547 38.4373 1.91751 10.36664 -40.39164 -8.45969 5.43506 3.65648
-0.34002 -0.03491 -0.5502 303.28122 -23.60192 -8.82728 31.89746 5.75252 -26.96627 -7.83466 8.34637 -0.83079 18.07086 -41.93937 11.74844 123.48009 98.13103 -26.32862 -6.18113 53.03486 13.97067 -44.67155 94.87075 -108.57734 -30.12272 7.56294 49.05105 -5.84408 -8.26221 -24.25519 -14.18429 -4.6565 -3.527 38.58262 2.42352 10.58654 -40.70958 -8.5623 5.50214 3.69764
-0.34203 -0.03463 -0.54784 301.74677 -23.50968 -8.8427 32.20451 5.84838 -26.73503 -7.86957 8.32238 -0.83079 17.55457 -41.4431 11.5578 123.66252 96.70852 -25.34399 -6.05282 52.47829 13.6686 -44.58592 95.13873 -108.52758 -29.96375 7.49046 49.45052 -6.70927 -8.72033 -27.444 -13.82044 -4.72393 -3.54568 38.6743 2.88119 10.54414 -41.0425 -8.70315 5.56943 3.74191
-0.34468 -0.03417 -0.54461 300.15512 -23.36827 -8.81982 32.31353 5.91656 -26.28329 -7.8557 8.38656 -0.83079 17.04896 -40.77028 11.40224 123.75509 99.15491 -26.52769 -6.31486 52.10767 13.66337 -44.68401 95.38045 -108.55462 -29.89001 7.48771 49.18064 -7.19887 -9.38869 -28.17372 -13.85616 -4.82534 -3.60975 38.6229 3.16016 9.68596 -41.39329 -8.9633 5.64524 3.80041
-0.3476 -0.03366 -0.54103 298.54443 -23.21589 -8.77815 32.35201 5.96966 -25.74496 -7.82111 8.48221 -0.83079 16.5577 -40.02925 11.2701 123.81458 102.82992 -28.40013 -6.70108 51.8014 13.77365 -44.85412 95.61495 -108.60259 -29.84682 7.50781 48.70386 -7.5305 -10.19078 -28.03245 -14.05218 -4.90748 -3.67135 38.51656 3.39492 8.58117 -41.75322 -9.26091 5.72107 3.8619
-0.35045 -0.03318 -0.53759 296.93402 -23.07405 -8.7412 32.42184 6.02598 -25.23726 -7.79397 8.56031 -0.83079 16.07748 -39.32163 11.14272 123.88562 105.74532 -29.85003 -7.01068 51.47432 13.83811 -44.99668 95.85007 -108.6291 -29.79091 7.51706 48.34959 -7.90135 -10.90396 -28.28984 -14.18191 -4.99348 -3.73145 38.43172 3.67382 7.65383 -42.10502 -9.53478 5.7941 3.92002
-0.35306 -0.03269 -0.53423 295.36131 -22.90909 -8.71973 32.49507 6.09678 -24.76166 -7.77511 8.65567 -0.83079 15.51094 -38.59725 10.94656 123.97547 109.48001 -31.74334 -7.40268 51.10032 13.88014 -45.12001 96.10343 -108.70292 -29.72787 7.52713 47.88474 -8.41353 -11.77429 -28.54961 -14.29268 -5.08241 -3.79206 38.36187 3.85514 6.45601 -42.47861 -9.83544 5.87829 3.98613
-0.35625 -0.03221 -0.53061 293.70706 -22.79026 -8.66155 32.54508 6.13393 -24.20407 -7.73363 8.71976 -0.83079 15.13819 -37.89573 10.90222 124.01517 111.82443 -32.89122 -7.65484 50.84565 13.99079 -45.29759 96.31199 -108.68701 -29.68809 7.54113 47.59674 -8.5929 -12.34246 -28.59382 -14.47553 -5.1671 -3.85471 38.2474 4.2255 5.75559 -42.80641 -10.09065 5.93956 4.0366
